<mxfile host="app.diagrams.net" modified="2022-02-28T10:37:23.686Z" agent="5.0 (Windows NT 10.0; Win64; x64) AppleWebKit/537.36 (KHTML, like Gecko) Chrome/98.0.4758.102 Safari/537.36 OPR/84.0.4316.21" etag="0b3qxbShoA0TErTwvXeO" version="16.6.4" type="github">
  <diagram id="yHr-GwGU3GDousn4NrDk" name="Page-1">
    <mxGraphModel dx="830" dy="470" grid="1" gridSize="10" guides="1" tooltips="1" connect="1" arrows="1" fold="1" page="1" pageScale="1" pageWidth="827" pageHeight="1169" math="0" shadow="0">
      <root>
        <mxCell id="0" />
        <mxCell id="1" parent="0" />
        <mxCell id="32Wo6wDjULuT08FHl_mB-4" value="CurrencyConverter" style="swimlane;fontStyle=1;align=center;verticalAlign=top;childLayout=stackLayout;horizontal=1;startSize=26;horizontalStack=0;resizeParent=1;resizeParentMax=0;resizeLast=0;collapsible=1;marginBottom=0;" vertex="1" parent="1">
          <mxGeometry x="30" y="20" width="280" height="86" as="geometry" />
        </mxCell>
        <mxCell id="32Wo6wDjULuT08FHl_mB-5" value="+ currencies: HashMap&lt;String, Float&gt;" style="text;strokeColor=none;fillColor=none;align=left;verticalAlign=top;spacingLeft=4;spacingRight=4;overflow=hidden;rotatable=0;points=[[0,0.5],[1,0.5]];portConstraint=eastwest;" vertex="1" parent="32Wo6wDjULuT08FHl_mB-4">
          <mxGeometry y="26" width="280" height="26" as="geometry" />
        </mxCell>
        <mxCell id="32Wo6wDjULuT08FHl_mB-6" value="" style="line;strokeWidth=1;fillColor=none;align=left;verticalAlign=middle;spacingTop=-1;spacingLeft=3;spacingRight=3;rotatable=0;labelPosition=right;points=[];portConstraint=eastwest;" vertex="1" parent="32Wo6wDjULuT08FHl_mB-4">
          <mxGeometry y="52" width="280" height="8" as="geometry" />
        </mxCell>
        <mxCell id="32Wo6wDjULuT08FHl_mB-7" value="+ convert(value: float, from: String, to: String): float" style="text;strokeColor=none;fillColor=none;align=left;verticalAlign=top;spacingLeft=4;spacingRight=4;overflow=hidden;rotatable=0;points=[[0,0.5],[1,0.5]];portConstraint=eastwest;" vertex="1" parent="32Wo6wDjULuT08FHl_mB-4">
          <mxGeometry y="60" width="280" height="26" as="geometry" />
        </mxCell>
      </root>
    </mxGraphModel>
  </diagram>
</mxfile>
